<svg xmlns="http://www.w3.org/2000/svg" xmlns:xlink="http://www.w3.org/1999/xlink" width="227" height="192" viewBox="0 0 227 192">
  <defs>
    <linearGradient id="linear-gradient" x1="0.5" y1="0.339" x2="0.5" y2="1" gradientUnits="objectBoundingBox">
      <stop offset="0" stop-color="#1e0a6e"/>
      <stop offset="1" stop-color="#2000a1"/>
    </linearGradient>
    <filter id="Rectangle_1" x="0" y="0" width="135" height="58" filterUnits="userSpaceOnUse">
      <feOffset input="SourceAlpha"/>
      <feGaussianBlur stdDeviation="2" result="blur"/>
      <feFlood/>
      <feComposite operator="in" in2="blur"/>
      <feComposite in="SourceGraphic"/>
    </filter>
    <linearGradient id="linear-gradient-2" x1="0.5" y1="1" x2="0.5" gradientUnits="objectBoundingBox">
      <stop offset="0" stop-color="#dc2b2b"/>
      <stop offset="1" stop-color="#790707"/>
    </linearGradient>
    <filter id="Rectangle_2" x="144" y="0" width="58" height="58" filterUnits="userSpaceOnUse">
      <feOffset input="SourceAlpha"/>
      <feGaussianBlur stdDeviation="2" result="blur-2"/>
      <feFlood/>
      <feComposite operator="in" in2="blur-2"/>
      <feComposite in="SourceGraphic"/>
    </filter>
    <filter id="Rectangle_3" x="45" y="67" width="90" height="58" filterUnits="userSpaceOnUse">
      <feOffset input="SourceAlpha"/>
      <feGaussianBlur stdDeviation="2" result="blur-3"/>
      <feFlood/>
      <feComposite operator="in" in2="blur-3"/>
      <feComposite in="SourceGraphic"/>
    </filter>
    <linearGradient id="linear-gradient-3" y1="0" y2="1" xlink:href="#linear-gradient-2"/>
    <filter id="Union_1" x="96" y="67" width="131" height="125" filterUnits="userSpaceOnUse">
      <feOffset input="SourceAlpha"/>
      <feGaussianBlur stdDeviation="2" result="blur-4"/>
      <feFlood/>
      <feComposite operator="in" in2="blur-4"/>
      <feComposite in="SourceGraphic"/>
    </filter>
    <linearGradient id="linear-gradient-4" x1="0.5" x2="0.5" y2="0.73" gradientUnits="objectBoundingBox">
      <stop offset="0" stop-color="#2000a1"/>
      <stop offset="1" stop-color="#1e0a6e"/>
    </linearGradient>
    <filter id="Rectangle_5" x="0" y="134" width="90" height="58" filterUnits="userSpaceOnUse">
      <feOffset input="SourceAlpha"/>
      <feGaussianBlur stdDeviation="2" result="blur-5"/>
      <feFlood/>
      <feComposite operator="in" in2="blur-5"/>
      <feComposite in="SourceGraphic"/>
    </filter>
  </defs>
  <g id="only_logo_light" transform="translate(-85 -176)">
    <g transform="matrix(1, 0, 0, 1, 85, 176)" filter="url(#Rectangle_1)">
      <path id="Rectangle_1-2" data-name="Rectangle 1" d="M5,0H123a0,0,0,0,1,0,0V46a0,0,0,0,1,0,0H5a5,5,0,0,1-5-5V5A5,5,0,0,1,5,0Z" transform="translate(6 6)" fill="url(#linear-gradient)"/>
    </g>
    <g transform="matrix(1, 0, 0, 1, 85, 176)" filter="url(#Rectangle_2)">
      <path id="Rectangle_2-2" data-name="Rectangle 2" d="M0,0H41a5,5,0,0,1,5,5V41a5,5,0,0,1-5,5H0a0,0,0,0,1,0,0V0A0,0,0,0,1,0,0Z" transform="translate(150 6)" fill="url(#linear-gradient-2)"/>
    </g>
    <g transform="matrix(1, 0, 0, 1, 85, 176)" filter="url(#Rectangle_3)">
      <path id="Rectangle_3-2" data-name="Rectangle 3" d="M5,0H78a0,0,0,0,1,0,0V46a0,0,0,0,1,0,0H5a5,5,0,0,1-5-5V5A5,5,0,0,1,5,0Z" transform="translate(51 73)" fill="#2000a1"/>
    </g>
    <g transform="matrix(1, 0, 0, 1, 85, 176)" filter="url(#Union_1)">
      <path id="Union_1-2" data-name="Union 1" d="M0,113V67H71V46H48V0h66a5,5,0,0,1,5,5V108a5,5,0,0,1-5,5Z" transform="translate(102 73)" fill="url(#linear-gradient-3)"/>
    </g>
    <g transform="matrix(1, 0, 0, 1, 85, 176)" filter="url(#Rectangle_5)">
      <path id="Rectangle_5-2" data-name="Rectangle 5" d="M5,0H78a0,0,0,0,1,0,0V46a0,0,0,0,1,0,0H5a5,5,0,0,1-5-5V5A5,5,0,0,1,5,0Z" transform="translate(6 140)" fill="url(#linear-gradient-4)"/>
    </g>
    <path id="Path_2" data-name="Path 2" d="M204,463.2v23l6.452-15.891L227,463.2Z" transform="translate(-107 -275)" fill="#fff"/>
    <path id="Path_3" data-name="Path 3" d="M204,463.2v23l6.452-15.891L227,463.2Z" transform="translate(37 -275)" fill="#fffdfd"/>
    <path id="Path_4" data-name="Path 4" d="M204,463.2v23l6.452-15.891L227,463.2Z" transform="translate(37 -208)" fill="#fffdfd"/>
    <path id="Path_5" data-name="Path 5" d="M204,463.2v23l6.452-15.891L227,463.2Z" transform="translate(-11 -142)" fill="#fffdfd"/>
    <path id="Path_6" data-name="Path 6" d="M204,463.2v23l6.452-15.891L227,463.2Z" transform="translate(-107 -142)" fill="#fffdfd"/>
    <path id="Path_7" data-name="Path 7" d="M204,463.2v23l6.452-15.891L227,463.2Z" transform="translate(-62 -208)" fill="#fffdfd"/>
  </g>
</svg>
